# xmcd
#
# Track frame offsets:
#	150
#	19529
#	39727
#	55623
#	72188
#	89069
#	106503
#	120285
#	141994
#	155355
#	174151
#	189701
#	207885
#	226930
#	239618
#	256761
#	275720
#	295081
#	311849
#	327687
#
# Disc length: 4558 seconds
#
# Revision: 5
# Processed by: cddbd v1.5.2PL0 Copyright (c) Steve Scherf et al.
# Submitted via: EasyCDDAExtractor 15.3.0.1
#
DISCID=1c11cc14
DTITLE=Ednita Nazario - A Que No Le Cuentas - 20 Exitos Originales
DYEAR=2007
DGENRE=Latin
TTITLE0=A Que No Le Cuentas
TTITLE1=Me Quedo Aqui Abajo
TTITLE2=La Prohibida
TTITLE3=Mi Pequeño Amor
TTITLE4=Antes Del Amor
TTITLE5=Tu, Sin Mi
TTITLE6=Esta Herido Mi Amor
TTITLE7=Chico Fisico
TTITLE8=Amandote
TTITLE9=Yo Soy La Mujer
TTITLE10=Te Borrare
TTITLE11=No Hay Nadie
TTITLE12=El Dolor De Tu Presencia
TTITLE13=Alma De Gitana
TTITLE14=Ese Muchacho
TTITLE15=No Te Enamores De Mi
TTITLE16=Fuerza De Gravedad
TTITLE17=Que Me Ame Mas
TTITLE18=Machismo
TTITLE19=Te Amaria
EXTD=
EXTT0=
EXTT1=
EXTT2=
EXTT3=
EXTT4=
EXTT5=
EXTT6=
EXTT7=
EXTT8=
EXTT9=
EXTT10=
EXTT11=
EXTT12=
EXTT13=
EXTT14=
EXTT15=
EXTT16=
EXTT17=
EXTT18=
EXTT19=
PLAYORDER=
